<svg xmlns="http://www.w3.org/2000/svg" viewBox="0 0 480 360" preserveAspectRatio="xMidYMid slice">
  <defs>
    <linearGradient id="b" x1="0" y1="0" x2="1" y2="1">
      <stop offset="0" stop-color="#5c4636"/><stop offset=".55" stop-color="#3d2e22"/><stop offset="1" stop-color="#251b14"/>
    </linearGradient>
  </defs>
  <rect width="480" height="360" fill="url(#b)"/>
  <g fill="none" stroke="#7a5c44" stroke-width="1.4" opacity="0.45">
    <path d="M0 48 C120 34 300 64 480 46"/><path d="M0 110 C140 98 320 126 480 106"/>
    <path d="M0 176 C110 158 300 194 480 172"/><path d="M0 242 C150 230 330 260 480 238"/>
    <path d="M0 308 C120 294 320 324 480 304"/>
  </g>
  <g fill="none" stroke="#1f150e" stroke-width="1.2" opacity="0.5">
    <path d="M0 78 C130 66 310 94 480 74"/><path d="M0 146 C120 134 300 162 480 140"/>
    <path d="M0 212 C150 200 330 228 480 208"/><path d="M0 276 C120 264 310 294 480 274"/>
  </g>
</svg>
